<mxfile host="app.diagrams.net" modified="2020-12-30T13:42:38.507Z" agent="5.0 (Windows NT 10.0; Win64; x64) AppleWebKit/537.36 (KHTML, like Gecko) Chrome/87.0.4280.88 Safari/537.36 Edg/87.0.664.66" etag="yQiayEJyWRj9WU1atLQg" version="14.1.3" type="github">
  <diagram id="ixfOLRvVvqRl-lm-mHOU" name="Page-1">
    <mxGraphModel dx="1038" dy="580" grid="1" gridSize="10" guides="1" tooltips="1" connect="1" arrows="1" fold="1" page="1" pageScale="1" pageWidth="850" pageHeight="1100" math="0" shadow="0">
      <root>
        <mxCell id="0" />
        <mxCell id="1" parent="0" />
        <mxCell id="UPeEf1zIOEuxNk9VRxdt-6" value="" style="edgeStyle=orthogonalEdgeStyle;rounded=0;orthogonalLoop=1;jettySize=auto;html=1;" edge="1" parent="1" source="UPeEf1zIOEuxNk9VRxdt-1" target="UPeEf1zIOEuxNk9VRxdt-5">
          <mxGeometry relative="1" as="geometry" />
        </mxCell>
        <mxCell id="UPeEf1zIOEuxNk9VRxdt-1" value="startDay" style="rounded=1;whiteSpace=wrap;html=1;fillColor=#d5e8d4;strokeColor=#82b366;" vertex="1" parent="1">
          <mxGeometry x="40" y="40" width="120" height="80" as="geometry" />
        </mxCell>
        <mxCell id="UPeEf1zIOEuxNk9VRxdt-4" value="" style="edgeStyle=orthogonalEdgeStyle;rounded=0;orthogonalLoop=1;jettySize=auto;html=1;" edge="1" parent="1" source="UPeEf1zIOEuxNk9VRxdt-2" target="UPeEf1zIOEuxNk9VRxdt-3">
          <mxGeometry relative="1" as="geometry" />
        </mxCell>
        <mxCell id="UPeEf1zIOEuxNk9VRxdt-2" value="startCallCycleVisit" style="rounded=1;whiteSpace=wrap;html=1;fillColor=#d5e8d4;strokeColor=#82b366;" vertex="1" parent="1">
          <mxGeometry x="240" y="40" width="120" height="80" as="geometry" />
        </mxCell>
        <mxCell id="UPeEf1zIOEuxNk9VRxdt-16" style="edgeStyle=orthogonalEdgeStyle;rounded=0;orthogonalLoop=1;jettySize=auto;html=1;exitX=0.5;exitY=1;exitDx=0;exitDy=0;entryX=0.5;entryY=0;entryDx=0;entryDy=0;" edge="1" parent="1" source="UPeEf1zIOEuxNk9VRxdt-3" target="UPeEf1zIOEuxNk9VRxdt-12">
          <mxGeometry relative="1" as="geometry" />
        </mxCell>
        <mxCell id="UPeEf1zIOEuxNk9VRxdt-3" value="generateVisitId" style="rounded=1;whiteSpace=wrap;html=1;fillColor=#d5e8d4;strokeColor=#82b366;" vertex="1" parent="1">
          <mxGeometry x="240" y="160" width="120" height="80" as="geometry" />
        </mxCell>
        <mxCell id="UPeEf1zIOEuxNk9VRxdt-11" style="edgeStyle=orthogonalEdgeStyle;rounded=0;orthogonalLoop=1;jettySize=auto;html=1;exitX=0.5;exitY=1;exitDx=0;exitDy=0;" edge="1" parent="1" source="UPeEf1zIOEuxNk9VRxdt-5" target="UPeEf1zIOEuxNk9VRxdt-7">
          <mxGeometry relative="1" as="geometry" />
        </mxCell>
        <mxCell id="UPeEf1zIOEuxNk9VRxdt-5" value="generateVisitId" style="rounded=1;whiteSpace=wrap;html=1;fillColor=#d5e8d4;strokeColor=#82b366;" vertex="1" parent="1">
          <mxGeometry x="40" y="160" width="120" height="80" as="geometry" />
        </mxCell>
        <mxCell id="UPeEf1zIOEuxNk9VRxdt-7" value="visitId" style="swimlane;fontStyle=0;childLayout=stackLayout;horizontal=1;startSize=26;fillColor=none;horizontalStack=0;resizeParent=1;resizeParentMax=0;resizeLast=0;collapsible=1;marginBottom=0;rounded=1;" vertex="1" parent="1">
          <mxGeometry x="40" y="280" width="120" height="104" as="geometry" />
        </mxCell>
        <mxCell id="UPeEf1zIOEuxNk9VRxdt-8" value="Item 1" style="text;strokeColor=none;fillColor=none;align=left;verticalAlign=top;spacingLeft=4;spacingRight=4;overflow=hidden;rotatable=0;points=[[0,0.5],[1,0.5]];portConstraint=eastwest;" vertex="1" parent="UPeEf1zIOEuxNk9VRxdt-7">
          <mxGeometry y="26" width="120" height="26" as="geometry" />
        </mxCell>
        <mxCell id="UPeEf1zIOEuxNk9VRxdt-9" value="Item 2" style="text;strokeColor=none;fillColor=none;align=left;verticalAlign=top;spacingLeft=4;spacingRight=4;overflow=hidden;rotatable=0;points=[[0,0.5],[1,0.5]];portConstraint=eastwest;" vertex="1" parent="UPeEf1zIOEuxNk9VRxdt-7">
          <mxGeometry y="52" width="120" height="26" as="geometry" />
        </mxCell>
        <mxCell id="UPeEf1zIOEuxNk9VRxdt-10" value="Item 3" style="text;strokeColor=none;fillColor=none;align=left;verticalAlign=top;spacingLeft=4;spacingRight=4;overflow=hidden;rotatable=0;points=[[0,0.5],[1,0.5]];portConstraint=eastwest;" vertex="1" parent="UPeEf1zIOEuxNk9VRxdt-7">
          <mxGeometry y="78" width="120" height="26" as="geometry" />
        </mxCell>
        <mxCell id="UPeEf1zIOEuxNk9VRxdt-12" value="visitId" style="swimlane;fontStyle=0;childLayout=stackLayout;horizontal=1;startSize=26;fillColor=none;horizontalStack=0;resizeParent=1;resizeParentMax=0;resizeLast=0;collapsible=1;marginBottom=0;rounded=1;" vertex="1" parent="1">
          <mxGeometry x="230" y="280" width="140" height="104" as="geometry" />
        </mxCell>
        <mxCell id="UPeEf1zIOEuxNk9VRxdt-13" value="entityId (int)" style="text;strokeColor=none;fillColor=none;align=left;verticalAlign=top;spacingLeft=4;spacingRight=4;overflow=hidden;rotatable=0;points=[[0,0.5],[1,0.5]];portConstraint=eastwest;" vertex="1" parent="UPeEf1zIOEuxNk9VRxdt-12">
          <mxGeometry y="26" width="140" height="26" as="geometry" />
        </mxCell>
        <mxCell id="UPeEf1zIOEuxNk9VRxdt-14" value="userId (int)" style="text;strokeColor=none;fillColor=none;align=left;verticalAlign=top;spacingLeft=4;spacingRight=4;overflow=hidden;rotatable=0;points=[[0,0.5],[1,0.5]];portConstraint=eastwest;" vertex="1" parent="UPeEf1zIOEuxNk9VRxdt-12">
          <mxGeometry y="52" width="140" height="26" as="geometry" />
        </mxCell>
        <mxCell id="UPeEf1zIOEuxNk9VRxdt-15" value="Item 3" style="text;strokeColor=none;fillColor=none;align=left;verticalAlign=top;spacingLeft=4;spacingRight=4;overflow=hidden;rotatable=0;points=[[0,0.5],[1,0.5]];portConstraint=eastwest;" vertex="1" parent="UPeEf1zIOEuxNk9VRxdt-12">
          <mxGeometry y="78" width="140" height="26" as="geometry" />
        </mxCell>
      </root>
    </mxGraphModel>
  </diagram>
</mxfile>
